<svg width="330" height="65" fill="none" xmlns="http://www.w3.org/2000/svg"><path d="M91.438 13.065h5.254l11.629 31.442h-6.116l-2.842-7.838H88.682l-2.8 7.838h-6.115l11.671-31.442zm6.848 19.308l-4.22-12.355-4.394 12.355h8.614zm26.357 12.578c-1.78 0-3.33-.413-4.651-1.225a8.543 8.543 0 01-3.101-3.292v13.507h-5.771V21.304h5.039v3.985a9.307 9.307 0 013.23-3.203c1.321-.782 2.843-1.166 4.565-1.166 1.522 0 2.929.31 4.221.945a10.666 10.666 0 013.345 2.568c.933 1.078 1.665 2.347 2.196 3.808.532 1.462.805 3.012.805 4.62 0 1.684-.245 3.263-.733 4.74-.488 1.475-1.162 2.76-2.038 3.852a9.477 9.477 0 01-3.13 2.568c-1.22.62-2.541.93-3.977.93zm-1.938-5.048c.862 0 1.666-.192 2.398-.576a6.007 6.007 0 001.88-1.55 7.332 7.332 0 001.206-2.258 8.278 8.278 0 00.431-2.657c0-.975-.158-1.875-.474-2.716a6.987 6.987 0 00-1.32-2.2 6.129 6.129 0 00-1.982-1.461 5.758 5.758 0 00-2.469-.532c-.545 0-1.105.104-1.679.296a5.825 5.825 0 00-1.594.812 7.11 7.11 0 00-1.321 1.24 4.87 4.87 0 00-.875 1.55v5.446c.516 1.329 1.306 2.436 2.368 3.307 1.048.87 2.197 1.299 3.431 1.299zm29.244 5.048c-1.78 0-3.33-.413-4.651-1.225a8.543 8.543 0 01-3.101-3.292v13.507h-5.771V21.304h5.039v3.985a9.298 9.298 0 013.23-3.203c1.321-.782 2.842-1.166 4.565-1.166 1.522 0 2.929.31 4.221.945a10.677 10.677 0 013.345 2.568c.933 1.078 1.665 2.347 2.196 3.808a13.47 13.47 0 01.804 4.62c0 1.684-.244 3.263-.732 4.74-.488 1.475-1.163 2.76-2.038 3.852a9.477 9.477 0 01-3.13 2.568c-1.22.62-2.541.93-3.977.93zm-1.938-5.048a5.1 5.1 0 002.398-.576 6.007 6.007 0 001.88-1.55 7.332 7.332 0 001.206-2.258 8.305 8.305 0 00.431-2.657c0-.975-.158-1.875-.474-2.716a7.008 7.008 0 00-1.321-2.2 6.114 6.114 0 00-1.981-1.461 5.761 5.761 0 00-2.469-.532 5.3 5.3 0 00-1.68.296 5.834 5.834 0 00-1.593.812 7.11 7.11 0 00-1.321 1.24 4.874 4.874 0 00-.876 1.55v5.446c.517 1.329 1.307 2.436 2.369 3.307 1.048.87 2.197 1.299 3.431 1.299zm22.597 5.045c-2.325 0-4.091-.767-5.297-2.303-1.206-1.535-1.809-3.808-1.809-6.82V21.302h5.771v13.24c0 3.573 1.249 5.359 3.747 5.359 1.121 0 2.196-.354 3.259-1.048 1.047-.694 1.895-1.742 2.556-3.174V21.286h5.771v16.385c0 .62.114 1.063.329 1.328.215.266.56.414 1.049.443v5.049c-.576.118-1.049.192-1.436.221-.388.03-.747.044-1.049.044-1.033 0-1.879-.25-2.511-.738-.646-.487-1.035-1.151-1.149-2.022l-.129-1.86c-1.005 1.594-2.297 2.79-3.877 3.587-1.592.827-3.316 1.225-5.225 1.225zM192.29 12.18h5.771v24.887c0 .856.201 1.52.603 1.993.403.472.977.708 1.722.708.345 0 .718-.059 1.134-.177a8.222 8.222 0 001.193-.443l.776 4.517c-.776.384-1.681.68-2.714.886-1.034.206-1.967.31-2.799.31-1.81 0-3.203-.487-4.193-1.491-.99-.989-1.493-2.391-1.493-4.222V12.18zm19.855 32.77a8.366 8.366 0 01-3.059-.56 7.304 7.304 0 01-2.453-1.55 7.468 7.468 0 01-1.623-2.333c-.403-.885-.574-1.86-.574-2.923a6.57 6.57 0 01.717-3.026 6.755 6.755 0 011.982-2.361c.847-.65 1.852-1.166 3.044-1.535 1.177-.37 2.469-.561 3.875-.561 1.006 0 1.981.088 2.957.265.962.177 1.81.428 2.556.753v-1.328c0-1.535-.416-2.716-1.262-3.543-.848-.827-2.111-1.24-3.777-1.24a9.738 9.738 0 00-3.531.664c-1.149.443-2.327 1.093-3.532 1.949l-1.765-3.764c2.899-1.978 6.029-2.967 9.388-2.967 3.244 0 5.757.811 7.552 2.465 1.794 1.653 2.698 4 2.698 7.115v7.218c0 .62.114 1.063.331 1.328.215.266.574.414 1.047.443v5.048c-.976.207-1.822.31-2.54.31-1.092 0-1.939-.25-2.526-.752-.59-.502-.963-1.166-1.093-1.993l-.128-1.284c-1.006 1.358-2.225 2.391-3.661 3.1a10.378 10.378 0 01-4.623 1.062zm1.637-4.34c.976 0 1.895-.176 2.785-.53.876-.355 1.55-.828 2.053-1.418.631-.502.947-1.063.947-1.683v-2.657a13.841 13.841 0 00-2.239-.634 11.768 11.768 0 00-2.327-.251c-1.493 0-2.712.354-3.66 1.048-.947.693-1.421 1.564-1.421 2.642 0 1.004.373 1.83 1.119 2.495.747.664 1.651.989 2.743.989zm30.276 2.702c-.775.354-1.724.708-2.844 1.062a11.628 11.628 0 01-3.531.532 8.03 8.03 0 01-2.268-.31 4.908 4.908 0 01-1.852-.99 4.704 4.704 0 01-1.264-1.77c-.316-.724-.473-1.595-.473-2.643v-13.33h-2.972v-4.56h2.972v-7.529h5.771v7.529h4.737v4.56h-4.737V37.2c0 .827.215 1.417.631 1.742.418.34.934.517 1.522.517a5.24 5.24 0 001.766-.31 25.95 25.95 0 001.378-.532l1.164 4.695zm12.921 1.638c-1.809 0-3.446-.31-4.911-.96-1.464-.634-2.712-1.49-3.746-2.582-1.035-1.093-1.824-2.362-2.398-3.809a12.518 12.518 0 01-.832-4.561c0-1.653.272-3.203.818-4.68a11.435 11.435 0 012.369-3.852c1.033-1.107 2.282-1.978 3.775-2.642 1.479-.65 3.144-.974 4.968-.974 1.837 0 3.487.324 4.939.974 1.449.65 2.684 1.52 3.702 2.613a11.16 11.16 0 012.327 3.808 13 13 0 01.789 4.517c0 .384 0 .753-.014 1.107-.015.354-.057.65-.116.886h-17.441c.085.915.3 1.727.645 2.435a6.002 6.002 0 001.335 1.816 5.802 5.802 0 001.852 1.151 5.932 5.932 0 002.154.399c1.148 0 2.225-.28 3.244-.856 1.02-.576 1.708-1.329 2.097-2.274l4.952 1.417c-.832 1.772-2.167 3.233-3.992 4.37-1.808 1.136-3.99 1.697-6.516 1.697zm5.857-13.993c-.143-1.742-.776-3.13-1.867-4.178-1.105-1.048-2.454-1.564-4.034-1.564-.775 0-1.493.133-2.167.428a5.934 5.934 0 00-1.795 1.166c-.517.487-.947 1.107-1.278 1.816-.329.708-.517 1.49-.574 2.346h11.715v-.014z" fill="#fff"/><path fill-rule="evenodd" clip-rule="evenodd" d="M7.129 0C3.194 0 0 3.205 0 7.153v50.073c0 3.949 3.194 7.153 7.129 7.153H57.03c3.935 0 7.129-3.204 7.129-7.153V7.153C64.16 3.205 60.966 0 57.031 0H7.13zm9.518 31.32h14.566V16.704c0-3.466-2.788-6.264-6.243-6.264-3.454 0-6.242 2.798-6.242 6.264 0 .974.222 1.893.624 2.714a6.088 6.088 0 00-2.705-.626c-3.454 0-6.243 2.798-6.243 6.264s2.789 6.264 6.243 6.264zm0 1.74h14.566v14.615c0 3.467-2.788 6.264-6.243 6.264-3.454 0-6.242-2.797-6.242-6.264 0-.974.222-1.893.624-2.714a6.088 6.088 0 01-2.705.627c-3.454 0-6.243-2.798-6.243-6.264s2.789-6.264 6.243-6.264zm16.3-1.74h14.566c3.454 0 6.243-2.798 6.243-6.264s-2.789-6.264-6.243-6.264c-.971 0-1.886.223-2.705.626.402-.821.624-1.74.624-2.714 0-3.466-2.788-6.264-6.242-6.264-3.455 0-6.243 2.798-6.243 6.264V31.32zm14.566 1.74H32.947v14.615c0 3.467 2.788 6.264 6.243 6.264 3.454 0 6.242-2.797 6.242-6.264 0-.974-.222-1.893-.624-2.714a6.087 6.087 0 002.705.627c3.454 0 6.243-2.798 6.243-6.264s-2.789-6.264-6.243-6.264zm240.341-19.14h-5.203v5.22h5.203v26.1h5.202V13.92h-5.202zm15.606 15.66c0 5.767 4.658 10.44 10.404 10.44 5.747 0 10.405-4.674 10.405-10.44 0-5.765-4.658-10.44-10.405-10.44-5.746 0-10.404 4.675-10.404 10.44zm10.404-15.66c-8.62 0-15.606 7.012-15.606 15.66 0 8.65 6.986 15.66 15.606 15.66 8.62 0 15.607-7.01 15.607-15.66 0-8.648-6.987-15.66-15.607-15.66z" fill="#fff"/></svg>