<svg width="64" height="61" fill="none" xmlns="http://www.w3.org/2000/svg"><path d="M.5 30C.5 13.708 13.708.5 30 .5h4C50.292.5 63.5 13.708 63.5 30v1c0 16.292-13.208 29.5-29.5 29.5h-4C13.708 60.5.5 47.292.5 31v-1z" fill="#fff" stroke="#EAE370"/><path fill-rule="evenodd" clip-rule="evenodd" d="M31.5 42.312a.843.843 0 00.844-.844v-19.9l5.309 5.31a.845.845 0 001.194-1.195l-6.75-6.75a.845.845 0 00-1.194 0l-6.75 6.75a.845.845 0 001.195 1.195l5.308-5.31v19.9a.843.843 0 00.844.844z" fill="#5059B1"/></svg>