<svg width="22" height="27" fill="none" xmlns="http://www.w3.org/2000/svg"><path d="M11.976 21.209l5.5-5.4a1.353 1.353 0 00.405-.959 1.333 1.333 0 00-.405-.958 1.383 1.383 0 00-.976-.397 1.401 1.401 0 00-.976.397l-3.149 3.105V1.35a1.34 1.34 0 00-.403-.955A1.388 1.388 0 0011 0c-.365 0-.714.142-.972.395a1.338 1.338 0 00-.403.955v15.647l-3.149-3.105a1.377 1.377 0 00-.976-.4 1.398 1.398 0 00-.976.4 1.349 1.349 0 00-.407.958 1.329 1.329 0 00.407.959l5.5 5.4c.13.122.285.219.454.283.334.135.71.135 1.045 0 .168-.064.322-.16.453-.284zM22 25.65a1.34 1.34 0 00-.403-.955 1.388 1.388 0 00-.972-.395H1.375c-.365 0-.714.142-.972.395A1.338 1.338 0 000 25.65c0 .358.145.701.403.955.258.253.607.395.972.395h19.25c.365 0 .714-.142.972-.395A1.34 1.34 0 0022 25.65z" fill="#5059B1"/></svg>