<svg width="73" height="72" fill="none" xmlns="http://www.w3.org/2000/svg"><path d="M72.243 32.394a14.425 14.425 0 00-7.212-12.55c.054-.625.054-1.252 0-1.876a10.82 10.82 0 00-10.82-10.82h-.649a10.82 10.82 0 00-17.383-4.4 10.82 10.82 0 00-17.383 4.4h-.65a10.82 10.82 0 00-10.819 10.82 10.82 10.82 0 000 1.875A14.426 14.426 0 005.344 43.61a14.426 14.426 0 0012.803 21.242h.649a10.82 10.82 0 0017.383 4.4 10.82 10.82 0 0017.383-4.4h.65A14.426 14.426 0 0066.833 43.61a14.425 14.425 0 005.41-11.216zm-39.67-8.836a17.032 17.032 0 00-2.453-1.154 3.615 3.615 0 10-2.308 6.852A7.213 7.213 0 0132.572 36v5.59a17.022 17.022 0 00-2.452-1.154 3.616 3.616 0 00-2.308 6.852 7.213 7.213 0 014.76 6.744v7.213a3.607 3.607 0 01-3.606 3.607 3.606 3.606 0 01-3.282-2.164 14.652 14.652 0 001.731-1.19 3.61 3.61 0 10-4.616-5.554 7.213 7.213 0 01-4.652 1.695 7.213 7.213 0 01-7.213-7.213 7.212 7.212 0 011.154-3.823c.81.145 1.63.218 2.452.216a3.607 3.607 0 000-7.213 6.635 6.635 0 01-2.488-.468 7.213 7.213 0 01-1.118-13.056c.512.472 1.068.894 1.659 1.262a3.619 3.619 0 003.606-6.275 3.246 3.246 0 01-1.226-1.19 3.318 3.318 0 01-.433-1.911 3.606 3.606 0 013.607-3.607c.25-.035.506-.035.757 0 .19.58.42 1.146.685 1.695a3.608 3.608 0 004.941 1.335 3.606 3.606 0 001.298-4.833 3.822 3.822 0 01-.468-1.803 3.606 3.606 0 117.212 0v12.803zm27.733 15.58a6.635 6.635 0 01-2.488.468 3.606 3.606 0 100 7.213c.822.002 1.643-.07 2.452-.216a7.213 7.213 0 011.154 3.823 7.213 7.213 0 01-7.213 7.213 7.213 7.213 0 01-4.652-1.695 3.611 3.611 0 10-4.616 5.554c.547.437 1.126.835 1.73 1.19a3.607 3.607 0 01-3.281 2.164 3.606 3.606 0 01-3.607-3.607v-7.213a7.213 7.213 0 014.76-6.744 3.615 3.615 0 00-2.307-6.852c-.847.319-1.667.705-2.453 1.154V36a7.213 7.213 0 014.76-6.744 3.615 3.615 0 10-2.307-6.852 16.98 16.98 0 00-2.453 1.154V10.755a3.606 3.606 0 117.213 0 3.823 3.823 0 01-.469 1.803 3.606 3.606 0 002.637 5.396 3.606 3.606 0 003.603-1.79c.27-.584.498-1.187.685-1.803.251-.035.506-.035.757 0a3.606 3.606 0 013.607 3.607 3.606 3.606 0 01-.613 1.983 3.246 3.246 0 01-1.19 1.118 3.62 3.62 0 003.606 6.276 9.598 9.598 0 001.803-1.263 7.212 7.212 0 01-.974 13.056h-.144z" fill="#EAE370"/></svg>