<svg width="63" height="78" fill="none" xmlns="http://www.w3.org/2000/svg"><path d="M60.976 6.43a3.901 3.901 0 00-3.277-.78A31.21 31.21 0 0133.434.696a3.901 3.901 0 00-4.448 0A31.21 31.21 0 014.721 5.65 3.901 3.901 0 00.376 7.788 3.901 3.901 0 000 9.474v29.064a35.11 35.11 0 0014.708 28.596l14.24 10.143a3.901 3.901 0 004.524 0l14.24-10.143A35.111 35.111 0 0062.42 38.538V9.474a3.902 3.902 0 00-1.444-3.043zm-6.359 32.108a27.308 27.308 0 01-11.43 22.237L31.21 69.318l-11.977-8.543a27.309 27.309 0 01-11.43-22.237V13.96c8.178.7 16.37-1.198 23.407-5.423a39.012 39.012 0 0023.407 5.423v24.578zm-17.4-8.934L26.724 40.137l-3.472-3.511a3.917 3.917 0 00-5.54 5.54l6.242 6.242a3.902 3.902 0 005.54 0l13.42-13.303a3.917 3.917 0 00-5.54-5.54l-.155.039z" fill="#EAE370"/></svg>