<svg width="78" height="78" fill="none" xmlns="http://www.w3.org/2000/svg"><path d="M58.733 78H11.747A11.747 11.747 0 010 66.253V27.098a11.747 11.747 0 0111.747-11.747h3.915a15.662 15.662 0 0128.584-8.536 15.114 15.114 0 012.74 8.536h11.747a3.916 3.916 0 013.916 3.916v11.747a15.663 15.663 0 018.535 28.583 15.114 15.114 0 01-8.535 2.74v11.748A3.916 3.916 0 0158.733 78zM11.747 23.182a3.916 3.916 0 00-3.916 3.916v39.155a3.916 3.916 0 003.916 3.916h43.07V57.718a3.914 3.914 0 013.365-3.9 3.915 3.915 0 011.843.18 6.93 6.93 0 006.813-.9 7.831 7.831 0 003.642-5.365 7.83 7.83 0 00-1.88-6.226 7.4 7.4 0 00-8.496-2.153 3.915 3.915 0 01-4.778-1.914 3.914 3.914 0 01-.43-1.806V23.182h-12.53a3.916 3.916 0 01-3.915-5.207 6.931 6.931 0 00-.901-6.813 7.597 7.597 0 00-11.747-1.684 7.831 7.831 0 00-2.31 5.873 7.4 7.4 0 00.51 2.624 3.915 3.915 0 01-3.72 5.207h-8.536z" fill="#EAE370"/></svg>