<svg width="83" height="78" fill="none" xmlns="http://www.w3.org/2000/svg"><path d="M82.86 29.49a4.08 4.08 0 00-1.37-1.885 4.185 4.185 0 00-2.193-.846l-23.582-3.383L45.147 2.3A4.1 4.1 0 0043.618.622a4.195 4.195 0 00-4.402 0A4.1 4.1 0 0037.687 2.3L27.12 23.335 3.538 26.759a4.177 4.177 0 00-2.082.914 4.074 4.074 0 00-1.275 1.858 4.012 4.012 0 00-.057 2.18 4.06 4.06 0 001.093 1.897l17.116 16.306L14.19 73.07a4.013 4.013 0 00.178 2.302 4.085 4.085 0 001.42 1.838 4.2 4.2 0 004.494.263l21.136-10.884 21.136 10.884a3.904 3.904 0 001.907.49 4.191 4.191 0 002.445-.775 4.088 4.088 0 001.434-1.8 4.014 4.014 0 00.224-2.277l-4.145-23.155L81.536 33.65a4.072 4.072 0 001.275-1.89 4.014 4.014 0 00.05-2.268zM57.374 45.797a4.066 4.066 0 00-1.049 1.648 4.013 4.013 0 00-.153 1.94l2.984 17.121-15.583-8.153a4.453 4.453 0 00-3.895 0l-15.583 8.153 2.984-17.122a4.013 4.013 0 00-.153-1.939 4.067 4.067 0 00-1.05-1.648l-12.432-12.23L30.89 31.08a4.184 4.184 0 001.86-.735c.548-.39.992-.908 1.29-1.507l7.377-15.532L49.21 28.88a4.094 4.094 0 001.29 1.507c.55.39 1.188.643 1.86.735l17.447 2.487-12.433 12.189z" fill="#EAE370"/></svg>