<svg width="528" height="61" fill="none" xmlns="http://www.w3.org/2000/svg"><g clip-path="url(#clip0_159:1446)" fill="#5059B1"><path d="M56.27 28.736c0-4.195-.029-8.39.03-12.586 0-1.207-.467-1.924-1.546-2.433-8.099-3.931-16.207-7.853-24.305-11.813-.962-.453-1.818-.424-2.751.104a4818.651 4818.651 0 01-24.5 14.189c-.962.566-1.35 1.282-1.35 2.376.028 8.174.028 16.358 0 24.532 0 1.15.437 1.867 1.428 2.404 8.099 4.46 16.207 8.957 24.305 13.444.992.566 1.906.585 2.897-.056 8.186-5.1 16.372-10.21 24.587-15.311.855-.51 1.244-1.179 1.215-2.169-.029-4.214-.01-8.438-.01-12.68zM0 17.932c.33-2.008 1.847-2.914 3.47-3.819C11.16 9.73 18.793 5.317 26.425.857c1.76-1.046 3.306-1.15 5.153-.245a1909.013 1909.013 0 0023.478 11.361c2.12.99 3.033 2.49 3.004 4.761-.029 8.042-.029 16.085 0 24.136.03 1.895-.69 3.234-2.372 4.28a2000.47 2000.47 0 00-23.916 14.963c-1.847 1.15-3.47 1.207-5.376.104a2358.557 2358.557 0 00-23.537-13.04C1.381 46.368.36 45.302 0 43.67V17.932z"/><path d="M4.355 31.112c0-3.582.03-7.137-.029-10.72 0-.99.36-1.659 1.215-2.168a241.46 241.46 0 005.484-3.177c.826-.481 1.594-.481 2.45-.057 3.917 2.008 7.826 3.979 11.744 5.987 1.817.933 1.876 2.46.107 3.526-1.128.698-2.285 1.367-3.442 2.055-.826.481-1.653.481-2.48.057-1.409-.698-2.809-1.414-4.219-2.112-1.847-.905-3.392.028-3.392 2.055-.03 5.742-.088 11.522.029 17.263.029 1.707-1.575 2.829-3.111 1.764-.963-.67-2.071-1.123-3.14-1.66-.856-.424-1.245-1.065-1.245-2.027.059-3.602.03-7.184.03-10.786z"/><path d="M21.135 41.37c0-3.017.087-6.063-.03-9.117-.087-1.848 1.595-2.753 3.17-1.792.963.613 2.042 1.094 3.063 1.631.884.453 1.35 1.094 1.293 2.112-.059.962-.03 1.924-.03 2.914.059 2.008 1.682 2.913 3.442 1.895.749-.425 1.43-.858 2.178-1.254 1.293-.726 2.732 0 2.732 1.47a288.83 288.83 0 01-.03 11.248c0 .51-.418 1.179-.855 1.443a115.684 115.684 0 01-6.475 3.582c-.496.246-1.351.217-1.876-.028-1.877-.886-3.695-1.923-5.542-2.885-.768-.405-1.05-.99-1.05-1.82.04-3.139.01-6.27.01-9.4zm21.36-27.125c-1.352.886-2.703 1.707-4.132 2.432-.496.246-1.322.246-1.818 0a499.838 499.838 0 01-12.289-6.307c-1.516-.773-1.545-2.3-.087-3.206 1.264-.773 2.586-1.499 3.889-2.243.768-.453 1.546-.321 2.314.056 3.917 2.027 7.855 4.035 11.763 6.062 1.458.745 1.789 2.244.36 3.206zm11.296 20.582c0 1.791 0 3.583.03 5.346 0 .83-.302 1.386-.992 1.82-1.216.725-2.402 1.498-3.607 2.186-1.488.83-2.868.104-2.868-1.546-.059-3.639-.03-7.269-.03-10.88 0-.773.273-1.339.934-1.735 1.244-.744 2.45-1.527 3.694-2.244 1.352-.8 2.81-.028 2.84 1.528.028 1.838 0 3.677 0 5.525zm27.367 12.615V15.18h3.86v32.254h-3.86v.01zm29.487 0V31.801c0-1.98-.467-3.45-1.41-4.413-.914-.961-2.372-1.442-4.355-1.442-2.586 0-4.521.67-5.736 2.027-1.216 1.386-1.818 3.64-1.818 6.788v12.672h-3.772V23.278h3.081l.603 3.29h.195c.768-1.178 1.847-2.112 3.247-2.753 1.38-.67 2.946-.99 4.657-.99 3.004 0 5.259.698 6.776 2.112 1.516 1.386 2.255 3.64 2.255 6.732v15.764h-3.723v.01zm27.591-6.58c0 2.243-.856 3.978-2.586 5.213-1.741 1.207-4.132 1.82-7.272 1.82-3.306 0-5.873-.51-7.749-1.528v-3.394a20.287 20.287 0 003.86 1.386c1.38.349 2.702.51 3.966.51 1.984 0 3.5-.321 4.55-.934 1.079-.585 1.595-1.528 1.595-2.782 0-.933-.419-1.734-1.264-2.404-.827-.67-2.479-1.47-4.91-2.376-2.343-.83-3.966-1.574-4.958-2.187-.963-.641-1.711-1.339-2.178-2.14-.466-.801-.719-1.735-.719-2.828 0-1.98.826-3.527 2.479-4.677 1.653-1.15 3.918-1.706 6.805-1.706 2.674 0 5.289.537 7.856 1.574l-1.352 2.989c-2.479-1.018-4.764-1.5-6.776-1.5-1.789 0-3.14.265-4.054.802-.914.566-1.381 1.31-1.381 2.272 0 .641.166 1.179.525 1.66.331.424.885.886 1.653 1.282.749.405 2.207 1.018 4.356 1.791 2.975 1.047 4.958 2.112 6.008 3.15 1.021 1.074 1.546 2.404 1.546 4.006zm9.692-17.584v15.688c0 1.952.467 3.423 1.381 4.413.933.961 2.401 1.442 4.355 1.442 2.615 0 4.521-.698 5.736-2.055 1.186-1.386 1.789-3.658 1.789-6.788v-12.7h3.772v24.164h-3.111l-.525-3.234h-.224c-.768 1.207-1.847 2.112-3.227 2.753-1.352.613-2.917.934-4.686.934-3.033 0-5.318-.698-6.835-2.084-1.487-1.414-2.255-3.64-2.255-6.703v-15.83h3.83zm36.409-.453c1.098 0 2.09.085 2.975.264l-.525 3.394c-1.021-.216-1.925-.32-2.732-.32-2.013 0-3.724.801-5.182 2.376-1.41 1.602-2.119 3.582-2.119 5.93v12.964h-3.802V23.278h3.141l.418 4.46h.194c.914-1.575 2.042-2.782 3.335-3.64a7.663 7.663 0 014.297-1.273zm22.982 24.617l-.768-3.45h-.165c-1.244 1.527-2.479 2.564-3.723 3.101-1.245.538-2.781.802-4.628.802-2.479 0-4.414-.613-5.814-1.848-1.409-1.254-2.09-2.989-2.09-5.29 0-4.893 4.025-7.457 12.075-7.674l4.219-.132v-1.499c0-1.895-.418-3.31-1.244-4.196-.856-.905-2.207-1.367-4.054-1.367-2.071 0-4.414.613-7.059 1.848l-1.156-2.81a19.248 19.248 0 014.054-1.527 17.387 17.387 0 014.384-.537c2.975 0 5.182.641 6.611 1.923 1.429 1.254 2.149 3.31 2.149 6.147v16.49h-2.791v.02zm-8.545-2.564c2.372 0 4.219-.642 5.541-1.867 1.352-1.254 2.013-2.989 2.013-5.261v-2.169l-3.772.16c-3.004.086-5.153.538-6.475 1.34-1.351.801-2.013 2.055-2.013 3.742 0 1.34.419 2.33 1.264 3.017.798.689 1.954 1.038 3.442 1.038zm36.185 2.564V31.801c0-1.98-.467-3.45-1.381-4.413-.933-.961-2.401-1.442-4.355-1.442-2.615 0-4.521.67-5.736 2.027-1.215 1.386-1.818 3.64-1.818 6.788v12.672h-3.772V23.278h3.062l.603 3.29h.194c.769-1.178 1.848-2.112 3.248-2.753 1.409-.67 2.945-.99 4.656-.99 3.004 0 5.26.698 6.777 2.112 1.545 1.386 2.284 3.64 2.284 6.732v15.764h-3.762v.01zm21.495.453c-3.607 0-6.416-1.066-8.409-3.234-1.955-2.169-2.946-5.214-2.946-9.136 0-4.064.991-7.194 3.004-9.381 2.012-2.216 4.88-3.31 8.594-3.31 1.186 0 2.401.133 3.587.378 1.216.245 2.149.537 2.81.886l-1.157 3.13c-.826-.32-1.74-.584-2.732-.83-.962-.188-1.847-.292-2.615-.292-5.046 0-7.583 3.13-7.583 9.381 0 2.97.603 5.261 1.847 6.845 1.245 1.575 3.063 2.376 5.483 2.376 2.091 0 4.22-.424 6.397-1.31v3.261c-1.652.811-3.743 1.236-6.28 1.236zm22.74 0c-3.695 0-6.582-1.094-8.711-3.263-2.149-2.187-3.228-5.213-3.228-9.088 0-3.903.992-6.977 2.975-9.277 1.983-2.301 4.628-3.451 7.962-3.451 3.14 0 5.59.99 7.418 2.989 1.818 1.98 2.751 4.62 2.751 7.881v2.33h-17.198c.088 2.828.827 4.968 2.236 6.467 1.41 1.442 3.364 2.187 5.921 2.187 2.673 0 5.318-.537 7.962-1.63v3.26a22.475 22.475 0 01-3.801 1.226c-1.176.264-2.606.368-4.287.368zm-1.021-21.996c-2.013 0-3.607.64-4.793 1.895-1.186 1.254-1.906 2.989-2.09 5.242h13.037c0-2.3-.554-4.064-1.595-5.29-1.089-1.234-2.605-1.847-4.559-1.847zm27.416 21.543h-3.86V18.526H291.2v-3.347h24.917v3.338h-10.528v28.925zm25.49.453c-3.694 0-6.581-1.094-8.71-3.263-2.149-2.187-3.199-5.213-3.199-9.088 0-3.903.962-6.977 2.946-9.277 1.983-2.301 4.657-3.451 7.991-3.451 3.111 0 5.59.99 7.418 2.989 1.818 1.98 2.732 4.62 2.732 7.881v2.33h-17.169c.087 2.828.797 4.968 2.207 6.467 1.41 1.442 3.393 2.187 5.92 2.187 2.674 0 5.348-.537 7.963-1.63v3.26a21.418 21.418 0 01-3.772 1.226c-1.206.264-2.645.368-4.327.368zm-1.011-21.996c-2.012 0-3.587.64-4.793 1.895-1.186 1.254-1.876 2.989-2.09 5.242h13.037c0-2.3-.525-4.064-1.594-5.29-1.089-1.234-2.576-1.847-4.56-1.847zm26.59 21.996c-3.607 0-6.417-1.066-8.381-3.234-1.983-2.169-2.974-5.214-2.974-9.136 0-4.064.991-7.194 3.004-9.381 2.012-2.216 4.88-3.31 8.594-3.31 1.186 0 2.401.133 3.587.378 1.215.245 2.149.537 2.839.886l-1.186 3.13c-.826-.32-1.74-.584-2.732-.83-.962-.188-1.847-.292-2.615-.292-5.046 0-7.583 3.13-7.583 9.381 0 2.97.603 5.261 1.847 6.845 1.244 1.575 3.062 2.376 5.483 2.376 2.09 0 4.219-.424 6.397-1.31v3.261c-1.653.811-3.743 1.236-6.28 1.236zm29.263-.453V31.801c0-1.98-.438-3.45-1.381-4.413-.933-.961-2.372-1.442-4.355-1.442-2.615 0-4.55.698-5.736 2.055-1.215 1.386-1.818 3.658-1.818 6.788v12.644h-3.772V13.114h3.772v10.4c0 1.225-.059 2.272-.195 3.101h.253c.749-1.15 1.789-2.083 3.169-2.753 1.381-.67 2.946-.99 4.686-.99 3.063 0 5.348.698 6.864 2.112 1.517 1.386 2.285 3.64 2.285 6.685v15.764h-3.772v.01zm22.321 0h-3.859V18.526h-10.529v-3.347h24.917v3.338h-10.529v28.925zm30.323 0l-.768-3.45h-.165c-1.264 1.527-2.48 2.564-3.724 3.101-1.244.538-2.78.802-4.628.802-2.479 0-4.413-.613-5.813-1.848-1.41-1.254-2.091-2.989-2.091-5.29 0-4.893 4.025-7.457 12.075-7.674l4.219-.132v-1.499c0-1.895-.418-3.31-1.244-4.196-.856-.905-2.207-1.367-4.054-1.367-2.071 0-4.414.613-7.058 1.848l-1.157-2.81a19.248 19.248 0 014.054-1.527 17.394 17.394 0 014.385-.537c2.974 0 5.181.641 6.61 1.923 1.43 1.254 2.149 3.31 2.149 6.147v16.49h-2.79v.02zm-8.546-2.564c2.343 0 4.19-.642 5.542-1.867 1.351-1.254 2.012-2.989 2.012-5.261v-2.169l-3.772.16c-3.004.086-5.153.538-6.504 1.34-1.322.801-1.983 2.055-1.983 3.742 0 1.34.418 2.33 1.244 3.017.817.689 1.974 1.038 3.461 1.038zm22.895 2.564h-3.772V13.124h3.772v34.318zm18.521.453c-3.695 0-6.582-1.094-8.711-3.263-2.149-2.187-3.199-5.213-3.199-9.088 0-3.903.992-6.977 2.946-9.277 1.983-2.301 4.657-3.451 7.991-3.451 3.111 0 5.591.99 7.418 2.989 1.818 1.98 2.732 4.62 2.732 7.881v2.33h-17.169c.088 2.828.797 4.968 2.207 6.467 1.41 1.442 3.393 2.187 5.921 2.187 2.702 0 5.347-.537 7.962-1.63v3.26a21.418 21.418 0 01-3.772 1.226c-1.186.264-2.644.368-4.326.368zm-1.021-21.996c-2.013 0-3.588.64-4.764 1.895-1.215 1.254-1.905 2.989-2.119 5.242h13.037c0-2.3-.525-4.064-1.595-5.29-1.059-1.234-2.576-1.847-4.559-1.847zm33.706 21.543V31.801c0-1.98-.467-3.45-1.41-4.413-.914-.961-2.372-1.442-4.326-1.442-2.615 0-4.521.67-5.736 2.027-1.245 1.386-1.847 3.64-1.847 6.788v12.672h-3.734V23.278h3.063l.603 3.29h.194c.768-1.178 1.847-2.112 3.247-2.753 1.41-.67 2.946-.99 4.657-.99 3.004 0 5.26.698 6.776 2.112 1.517 1.386 2.285 3.64 2.285 6.732v15.764h-3.772v.01zm19.57-2.564c.661 0 1.322-.057 1.925-.16a10.584 10.584 0 001.487-.293v2.81c-.418.188-1.021.349-1.818.48-.768.132-1.516.19-2.148.19-4.822 0-7.224-2.462-7.224-7.402V26.116h-3.577v-1.763l3.577-1.528 1.595-5.157h2.177v5.61h7.224v2.828h-7.224v14.246c0 1.443.36 2.565 1.08 3.338.719.773 1.681 1.188 2.926 1.188z"/></g><defs><clipPath id="clip0_159:1446"><path fill="#fff" d="M0 0h527.103v61H0z"/></clipPath></defs></svg>